<svg width="746" height="2567" viewBox="0 0 746 2567" fill="none" xmlns="http://www.w3.org/2000/svg">
<path d="M373.138 910.672C579.041 910.672 745.626 1077.26 745.626 1283.16C745.626 1489.06 579.041 1655.65 373.138 1655.65C167.234 1655.65 0.648926 1489.06 0.648926 1283.16C0.648926 1077.26 167.234 910.672 373.138 910.672ZM0.648926 372.632C0.648926 578.536 167.234 745.121 373.138 745.121C579.041 745.121 745.626 578.536 745.626 372.632C745.626 166.729 579.041 0.143677 373.138 0.143677C167.234 0.143677 0.648926 166.729 0.648926 372.632ZM0.648926 2193.69C0.648926 2399.59 167.234 2566.18 373.138 2566.18C579.041 2566.18 745.626 2399.59 745.626 2193.69C745.626 1987.78 579.041 1821.2 373.138 1821.2C167.234 1821.2 0.648926 1987.78 0.648926 2193.69Z" fill="black"/>
</svg>
