<svg width="820" height="820" viewBox="0 0 820 820" fill="none" xmlns="http://www.w3.org/2000/svg">
<path d="M370.867 115.927H111.697C92.0586 115.927 73.224 123.729 59.3372 137.616C45.4504 151.502 37.6489 170.337 37.6489 189.976V708.316C37.6489 727.955 45.4504 746.789 59.3372 760.676C73.224 774.563 92.0586 782.364 111.697 782.364H630.037C649.676 782.364 668.511 774.563 682.398 760.676C696.284 746.789 704.086 727.955 704.086 708.316V449.146" stroke="black" stroke-width="74.0486" stroke-linecap="round" stroke-linejoin="round"/>
<path d="M648.55 60.3902C663.279 45.661 683.256 37.3862 704.086 37.3862C724.916 37.3862 744.893 45.661 759.622 60.3902C774.352 75.1193 782.626 95.0964 782.626 115.927C782.626 136.757 774.352 156.734 759.622 171.463L407.892 523.194L259.795 560.218L296.819 412.121L648.55 60.3902Z" stroke="black" stroke-width="74.0486" stroke-linecap="round" stroke-linejoin="round"/>
</svg>
